<svg width="64" height="64" viewBox="0 0 64 64" fill="none" xmlns="http://www.w3.org/2000/svg"><rect width="64" height="64" rx="14" fill="#E8E3D8"/><path d="M12 14H30C38 14 44 20 44 28V36C44 44 38 50 30 50H12V14Z" fill="#CA6F46"/><path d="M19 21H29C33.4 21 37 24.6 37 29V35C37 39.4 33.4 43 29 43H19V21Z" fill="#E8E3D8"/><rect x="42" y="22" width="9" height="9" rx="2" fill="#1AA5DF"/><rect x="52" y="22" width="9" height="9" rx="2" fill="#68C4FF"/><rect x="42" y="32" width="9" height="9" rx="2" fill="#0C79D8"/><rect x="52" y="32" width="9" height="9" rx="2" fill="#CA6F46"/></svg>